# AST/ASF file generated using VICON BodyLanguage
# -----------------------------------------------
:version 1.10
:name VICON
:units
  mass 1.0
  length 0.45
  angle deg
:documentation
   .ast/.asf automatically generated from VICON data using
   VICON BodyBuilder and BodyLanguage model FoxedUp or BRILLIANT.MOD
:root
   order TX TY TZ RX RY RZ
   axis XYZ
   position 0 0 0  
   orientation 0 0 0 
:bonedata
  begin
     id 1 
     name lhipjoint
     direction 0.662698 -0.695252 0.27831 
     length 2.53073 
     axis 0 0 0  XYZ
  end
  begin
     id 2 
     name lfemur
     direction 0.34202 -0.939693 0  
     length 7.16147  
     axis 0 0 20  XYZ
    dof rx ry rz
    limits (-160.0 20.0)
           (-70.0 70.0)
           (-60.0 70.0)
  end
  begin
     id 3 
     name ltibia
     direction 0.34202 -0.939693 0   
     length 7.63967   
     axis 0 0 20   XYZ
    dof rx
    limits (-10.0 170.0)
  end
  begin
     id 4 
     name lfoot
     direction 0.0938457 -0.257721 0.961651   
     length 1.89793   
     axis -90 7.62852e-016 20   XYZ
    dof rx rz
    limits (-45.0 90.0)
           (-70.0 20.0)
  end
  begin
     id 5 
     name ltoes
     direction -0.00116841 -0.0030592 0.999995   
     length 0.955649   
     axis -90 7.62852e-016 20   XYZ
    dof rx
    limits (-90.0 20.0)
  end
  begin
     id 6 
     name rhipjoint
     direction -0.649445 -0.705948 0.282592   
     length 2.49238  
     axis 0 0 0  XYZ 
  end
  begin
     id 7 
     name rfemur
     direction -0.34202 -0.939693 0   
     length 6.90728   
     axis 0 0 -20   XYZ
    dof rx ry rz
    limits (-160.0 20.0)
           (-70.0 70.0)
           (-70.0 60.0)
  end
  begin
     id 8 
     name rtibia
     direction -0.34202 -0.939693 0   
     length 7.72868   
     axis 0 0 -20   XYZ
    dof rx
    limits (-10.0 170.0)
 end
 begin
     id 9 
     name rfoot
     direction -0.0920068 -0.252865 0.963117   
     length 1.97476  
     axis -90 -7.62852e-016 -20   XYZ
    dof rx rz
    limits (-45.0 90.0)
           (-20.0 70.0)
  end
  begin
     id 10 
     name rtoes
     direction 0.000391322 0.00230649 0.999997   
     length 0.992641   
     axis -90 -7.62852e-016 -20   XYZ
    dof rx
    limits (-90.0 20.0)
  end
  begin
     id 11 
     name lowerback
     direction -0.00875327 0.998321 -0.0572635   
     length 2.20024   
     axis 0 0 0   XYZ
    dof rx ry rz
    limits (-20.0 45.0)
           (-30.0 30.0)
           (-30.0 30.0)
  end
  begin
     id 12 
     name upperback
     direction 0.00753931 0.999972 -0.000360425   
     length 2.20538   
     axis 0 0 0   XYZ
    dof rx ry rz
    limits (-20.0 45.0)
           (-30.0 30.0)
           (-30.0 30.0)
  end
  begin
     id 13 
     name thorax
     direction 0.0117767 0.999601 0.0256663   
     length 2.21508   
     axis 0 0 0   XYZ
    dof rx ry rz
    limits (-20.0 45.0)
           (-30.0 30.0)
           (-30.0 30.0)
  end
  begin
     id 14 
     name lowerneck
     direction 0.060228 0.994909 0.0807986   
     length 1.7607   
     axis 0 0 0   XYZ
    dof rx ry rz
    limits (-20.0 45.0)
           (-30.0 30.0)
           (-30.0 30.0)
  end
  begin
     id 15 
     name upperneck
     direction -0.0563647 0.959594 -0.275685   
     length 1.75612   
     axis 0 0 0   XYZ
    dof rx ry rz
    limits (-20.0 45.0)
           (-30.0 30.0)
           (-30.0 30.0)
  end
  begin
     id 16
     name head
     direction -0.0161544 0.99458 -0.102714  
     length 1.79288  
     axis 0 0 0   XYZ
    dof rx ry rz
    limits (-20.0 45.0)
           (-30.0 30.0)
           (-30.0 30.0)
  end
  begin
     id 17 
     name lclavicle
     direction 0.93913 0.332189 -0.087669  
     length 3.52087  
     axis 0 0 0   XYZ
    dof ry rz
    limits (-20.0 10.0)
           (0.0 20.0)
  end
  begin
     id 18 
     name lhumerus
     direction 1 -4.48974e-011 -2.70836e-027   
     length 5.35289   
     axis -180 -30 -90   XYZ
    dof rx ry rz
    limits (-60.0 90.0)
           (-90.0 90.0)
           (-90.0 90.0)
  end
  begin
     id 19
     name lradius
     direction 1 -4.48961e-011 -9.76021e-027   
     length 3.27727   
     axis -180 -30 -90   XYZ
    dof rx
    limits (-10.0 170.0)
  end
  begin
     id 20
     name lwrist
     direction 1 -4.49103e-011 -2.23668e-026   
     length 1.63864   
     axis 1.44924e-014 90 90   XYZ
    dof ry
    limits (-180.0 0.0)
 end
  begin
     id 21 
     name lhand
     direction 1 3.0697e-005 0.000161777   
     length 0.54443   
     axis 2.85318e-014 90 90   XYZ
    dof rx rz
    limits (-90.0 90.0)
           (-45.0 45.0)
  end
  begin
     id 22 
     name lfingers
     direction 1 -4.49027e-011 -8.9447e-026   
     length 0.438912   
     axis 5.70628e-014 90 90   XYZ
    dof rx
    limits (0.0 90.0)
  end
  begin
     id 23
     name lthumb
     direction 0.707058 2.6516e-005 0.707156   
     length 0.630274   
     axis -90 45 -3.53137e-014   XYZ
    dof rx rz
    limits (-45.0 45.0)
           (-45.0 45.0)
  end
  begin
     id 24 
     name rclavicle
     direction -0.95274 0.284984 -0.105215   
     length 3.43401  
     axis 0 0 0   XYZ 
    dof ry rz
    limits (-10.0 20.0)
           (-20.0 0.0)
  end
  begin
     id 25 
     name rhumerus
     direction -0.999999 -0.000575019 -0.00106829  
     length 5.52077   
     axis -180 30 90   XYZ
    dof rx ry rz
    limits (-90.0 60.0)
           (-90.0 90.0)
           (-90.0 90.0)
  end
  begin
     id 26 
     name rradius
     direction -1 -4.4879e-011 -6.35415e-027   
     length 3.32364   
     axis -180 30 90   XYZ
    dof rx
    limits (-10.0 170.0)
  end
  begin
     id 27 
     name rwrist
     direction -1 -4.49048e-011 -9.98542e-027   
     length 1.66182   
     axis 6.32482e-015 -90 -90   XYZ
    dof ry
    limits (-180.0 0.0)
  end
  begin
     id 28
     name rhand
     direction -1 -4.48978e-011 -1.99771e-026   
     length 0.732235   
     axis 1.27479e-014 -90 -90   XYZ
    dof rx rz
    limits (-90.0 90.0)
           (-45.0 45.0)
  end
  begin
     id 29
     name rfingers
     direction -1 -4.49144e-011 -3.99245e-026   
     length 0.590347   
     axis 2.5496e-014 -90 -90   XYZ
    dof rx
    limits (0.0 90.0)
  end
  begin
     id 30
     name rthumb
     direction -0.707107 -6.35121e-011 0.707107   
     length 0.847624   
     axis -90 -45 -2.82974e-014   XYZ
    dof rx rz
    limits (-45.0 45.0)
           (-45.0 45.0)
  end
:hierarchy
  begin
    root lhipjoint rhipjoint lowerback
    lhipjoint lfemur
    lfemur ltibia
    ltibia lfoot
    lfoot ltoes
    rhipjoint rfemur
    rfemur rtibia
    rtibia rfoot
    rfoot rtoes
    lowerback upperback
    upperback thorax
    thorax lowerneck lclavicle rclavicle
    lowerneck upperneck
    upperneck head
    lclavicle lhumerus
    lhumerus lradius
    lradius lwrist
    lwrist lhand lthumb
    lhand lfingers
    rclavicle rhumerus
    rhumerus rradius
    rradius rwrist
    rwrist rhand rthumb
    rhand rfingers
  end

#!OML:ASF G:\Work\Work\Patient Classification 1\Elijah\terrain1\Elijah.ASF
:FULLY-SPECIFIED
:DEGREES
232
root 15.7522 20.2447 11.1513 7.57966 -4.69004 1.68948
lowerback 9.18066 0.377961 -4.09725
upperback 1.05555 0.0787019 -0.218342
thorax -4.0575 0.102218 2.0691
lowerneck -10.2928 16.6588 14.0229
upperneck 31.6821 27.7971 -16.6486
head 18.3721 11.5956 -3.6725
rclavicle -1.09332e-014 -5.26779e-015
rhumerus -41.2385 -1.77852 -85.3648
rradius 55.1694
rwrist -13.5106
rhand -18.0953 21.3866
rfingers 7.12502
rthumb 8.17838 -8.43511
lclavicle -1.09332e-014 -5.26779e-015
lhumerus -37.6066 6.20355 77.3781
lradius 63.4162
lwrist -2.11229
lhand -8.81867 25.0312
lfingers 7.12502
lthumb 17.121 54.2968
rfemur -54.5956 -6.59262 22.7909
rtibia 72.7406
rfoot -15.601 -2.27698
rtoes -17.6128
lfemur 2.06989 -1.14407 -26.4599
ltibia -7.95139e-015
lfoot 2.12994 -7.59487
ltoes -6.25565
233
root 15.7369 20.2508 11.223 7.44879 -4.55959 1.91101
lowerback 9.08125 0.314679 -4.3205
upperback 1.22165 -0.0200465 -0.261458
thorax -3.82218 0.0491738 2.16201
lowerneck -10.5384 16.5814 13.5478
upperneck 31.6472 27.4837 -16.0882
head 18.0816 11.4598 -3.43423
rclavicle -4.72114e-016 8.54774e-015
rhumerus -41.2827 -1.99091 -85.1488
rradius 55.1338
rwrist -13.975
rhand -18.4075 20.9553
rfingers 7.12502
rthumb 7.87707 -8.87795
lclavicle -4.72114e-016 8.54774e-015
lhumerus -37.3606 6.30211 77.2174
lradius 62.8792
lwrist -2.27544
lhand -9.0383 25.4753
lfingers 7.12502
lthumb 16.9096 54.7592
rfemur -54.4391 -6.70646 22.628
rtibia 70.8186
rfoot -15.7221 -2.15546
rtoes -16.7511
lfemur 2.42033 -1.16278 -26.6402
ltibia 1.27222e-014
lfoot 3.88131 -7.91876
ltoes 1.54655
234
root 15.7184 20.2562 11.2856 7.47286 -4.62637 2.0299
lowerback 9.04011 0.280725 -4.56603
upperback 1.27142 -0.0848752 -0.242155
thorax -3.74241 0.0181019 2.32801
lowerneck -10.78 16.5355 13.0753
upperneck 31.7073 27.2832 -15.5889
head 17.8974 11.3593 -3.19645
rclavicle 7.85199e-015 5.66536e-015
rhumerus -41.3793 -2.02909 -84.9242
rradius 55.0884
rwrist -14.3686
rhand -18.5012 20.9733
rfingers 7.12502
rthumb 7.78661 -8.8633
lclavicle 7.85199e-015 5.66536e-015
lhumerus -37.2452 6.53177 77.0847
lradius 62.441
lwrist -2.35823
lhand -9.40395 25.8816
lfingers 7.12502
lthumb 16.5576 55.1952
rfemur -54.4179 -6.44693 22.5611
rtibia 68.9057
rfoot -15.8421 -2.44868
rtoes -16.4944
lfemur 2.52532 -0.988751 -26.6934
ltibia -2.70347e-014
lfoot 4.43419 -7.90126
ltoes 2.73935
235
root 15.6975 20.2564 11.3435 7.50579 -4.72611 1.84185
lowerback 9.14793 0.277599 -4.50377
upperback 1.22667 -0.0868012 -0.165705
thorax -3.84902 0.0198202 2.37317
lowerneck -10.5877 16.5648 13.2184
upperneck 31.7295 27.2893 -15.5356
head 17.8782 11.3963 -3.20768
rclavicle -5.7896e-015 1.55052e-014
rhumerus -41.4994 -2.10235 -84.7288
rradius 54.8899
rwrist -14.9707
rhand -18.4905 21.1609
rfingers 7.12502
rthumb 7.79692 -8.67534
lclavicle -5.7896e-015 1.55052e-014
lhumerus -37.4048 6.68951 76.9408
lradius 62.1842
lwrist -2.44924
lhand -9.58612 25.8169
lfingers 7.12502
lthumb 16.3822 55.1451
rfemur -54.3735 -6.04339 22.8792
rtibia 67.0292
rfoot -15.9893 -3.2543
rtoes -16.8838
lfemur 2.70015 -0.741381 -26.4464
ltibia -6.36111e-015
lfoot 4.33631 -8.08913
ltoes 0.828316
236
root 15.6737 20.2428 11.4074 7.49796 -4.64995 1.84828
lowerback 9.02977 0.25157 -4.58439
upperback 1.37853 -0.118799 -0.166685
thorax -3.62223 -0.00250688 2.42082
lowerneck -10.4818 16.7005 13.9252
upperneck 31.5487 27.5676 -16.1321
head 18.1188 11.5357 -3.47714
rclavicle -2.5345e-015 5.06901e-015
rhumerus -41.435 -2.34558 -84.571
rradius 54.8833
rwrist -15.483
rhand -18.5536 20.9605
rfingers 7.12502
rthumb 7.73602 -8.87801
lclavicle -2.5345e-015 5.06901e-015
lhumerus -37.2198 6.65453 76.8499
lradius 61.8698
lwrist -2.25276
lhand -9.7092 25.9243
lfingers 7.12502
lthumb 16.2637 55.2622
rfemur -54.3197 -5.87582 22.9929
rtibia 65.2852
rfoot -16.0237 -3.87521
rtoes -16.52
lfemur 1.77612 -0.684877 -26.4754
ltibia 2.57708
lfoot 0.277064 -7.8474
ltoes -15.5704
237
root 15.6514 20.2637 11.4718 7.48181 -4.56684 2.02797
lowerback 8.97524 0.20672 -4.89661
upperback 1.55848 -0.20079 -0.183406
thorax -3.39693 -0.0478944 2.58825
lowerneck -11.2869 16.7396 13.4147
upperneck 31.7196 27.4197 -15.4574
head 18.0878 11.4186 -3.09538
rclavicle 1.63997e-015 1.48095e-014
rhumerus -41.3597 -2.49483 -84.4242
rradius 55.0294
rwrist -15.8189
rhand -18.8069 20.9692
rfingers 7.12502
rthumb 7.49155 -8.87811
lclavicle 1.63997e-015 1.48095e-014
lhumerus -37.0085 6.72918 76.7722
lradius 61.7521
lwrist -1.88713
lhand -9.97283 26.1694
lfingers 7.12502
lthumb 16.0098 55.5278
rfemur -54.0459 -5.73356 22.809
rtibia 63.462
rfoot -16.0497 -3.79618
rtoes -14.3091
lfemur 2.13203 -0.659971 -26.4724
ltibia 1.9195
lfoot 1.05991 -7.49423
ltoes -12.4971
238
root 15.6293 20.2545 11.5443 7.5475 -4.53673 2.00036
lowerback 8.9548 0.159915 -4.98842
upperback 1.55906 -0.268246 -0.127663
thorax -3.37868 -0.0805313 2.70571
lowerneck -10.6738 16.6587 14.6666
upperneck 32.2667 27.6149 -16.36
head 18.8183 11.5571 -3.67011
rclavicle 8.74653e-015 2.03754e-014
rhumerus -41.4558 -2.57001 -84.2231
rradius 54.9736
rwrist -16.1842
rhand -19.0217 20.7753
rfingers 7.12502
rthumb 7.28416 -9.07937
lclavicle 8.74653e-015 2.03754e-014
lhumerus -37.1453 6.94631 76.6684
lradius 61.6441
lwrist -1.73884
lhand -10.193 26.0534
lfingers 7.12502
lthumb 15.7978 55.4288
rfemur -53.9785 -5.51632 22.8586
rtibia 61.7586
rfoot -15.8803 -3.90285
rtoes -12.6414
lfemur 3.36828 -0.577685 -26.4014
ltibia 2.38542e-014
lfoot 1.66717 -7.40444
ltoes -14.5719
239
root 15.6099 20.2567 11.6302 7.65711 -4.41796 2.12255
lowerback 8.67256 0.140226 -5.04644
upperback 1.498 -0.285567 -0.14761
thorax -3.28348 -0.0897735 2.71805
lowerneck -11.126 16.5346 13.6692
upperneck 32.2123 27.1757 -15.4474
head 18.3263 11.3383 -3.22513
rclavicle -3.2054e-015 -7.05686e-015
rhumerus -41.6657 -2.84842 -83.9221
rradius 54.6671
rwrist -16.5846
rhand -19.0779 20.4094
rfingers 7.12502
rthumb 7.22996 -9.44707
lclavicle -3.2054e-015 -7.05686e-015
lhumerus -37.2675 6.84848 76.6763
lradius 61.1595
lwrist -1.70662
lhand -10.1276 26.0133
lfingers 7.12502
lthumb 15.8607 55.3837
rfemur -53.902 -5.5641 22.7987
rtibia 60.0648
rfoot -15.6429 -4.2656
rtoes -13.5959
lfemur 3.6903 -0.6023 -26.508
ltibia 3.02153e-014
lfoot 0.962842 -7.45227
ltoes -17.0494
240
root 15.5979 20.2986 11.7152 7.54654 -4.14766 2.52162
lowerback 8.49104 0.128665 -5.20318
upperback 1.57839 -0.306523 -0.287698
thorax -3.09684 -0.105292 2.66144
lowerneck -11.3295 16.2805 13.1618
upperneck 32.3848 26.6614 -14.8727
head 18.104 11.1196 -3.04601
rclavicle 9.96408e-015 -3.27995e-015
rhumerus -41.8754 -3.30701 -83.599
rradius 54.5694
rwrist -16.854
rhand -19.236 19.987
rfingers 7.12502
rthumb 7.07737 -9.87471
lclavicle 9.96408e-015 -3.27995e-015
lhumerus -37.3233 6.62602 76.7493
lradius 60.8603
lwrist -1.5586
lhand -9.90535 25.7237
lfingers 7.12502
lthumb 16.0748 55.0769
rfemur -53.3636 -5.9563 22.4144
rtibia 58.3279
rfoot -15.5744 -4.31421
rtoes -15.3182
lfemur 3.85768 -0.785351 -26.8384
ltibia 3.18055e-015
lfoot 1.25412 -7.55189
ltoes -13.9063
241
root 15.5798 20.3049 11.7914 7.41894 -3.85679 2.53376
lowerback 8.53836 0.083565 -5.11351
upperback 1.64279 -0.359153 -0.290911
thorax -3.05239 -0.134494 2.61352
lowerneck -11.1372 16.2242 13.5285
upperneck 32.8682 26.6562 -14.924
head 18.4219 11.1437 -3.14889
rclavicle -7.50412e-015 1.50579e-014
rhumerus -42.2626 -3.55168 -83.3878
rradius 54.957
rwrist -17.2014
rhand -19.3629 19.3138
rfingers 7.12502
rthumb 6.95482 -10.552
lclavicle -7.50412e-015 1.50579e-014
lhumerus -37.5016 6.65588 76.7528
lradius 60.8345
lwrist -1.31271
lhand -9.77188 25.6119
lfingers 7.12502
lthumb 16.2033 54.9547
rfemur -52.8779 -6.06001 22.3894
rtibia 56.7502
rfoot -15.3309 -4.24735
rtoes -15.8483
lfemur 4.20784 -0.933242 -26.7535
ltibia -2.06736e-014
lfoot 1.57065 -7.78564
ltoes -13.4561
242
root 15.5524 20.2923 11.8613 7.54691 -3.76357 2.22816
lowerback 8.62004 0.0712943 -4.91413
upperback 1.39601 -0.364811 -0.156682
thorax -3.35472 -0.126788 2.64308
lowerneck -10.8042 16.214 13.6645
upperneck 32.9814 26.6058 -14.7793
head 18.3814 11.1765 -3.14981
rclavicle 1.58407e-014 3.18055e-015
rhumerus -42.9691 -3.4711 -83.2228
rradius 55.1724
rwrist -17.7315
rhand -19.4301 19.1279
rfingers 7.12502
rthumb 6.89002 -10.7399
lclavicle 1.58407e-014 3.18055e-015
lhumerus -37.9342 6.58104 76.771
lradius 60.5276
lwrist -1.06296
lhand -10.0358 26.1426
lfingers 7.12502
lthumb 15.9491 55.506
rfemur -52.6681 -5.63094 22.6553
rtibia 55.2296
rfoot -14.9532 -4.1902
rtoes -15.4054
lfemur 4.34606 -0.872762 -26.3207
ltibia 2.06736e-014
lfoot 1.78564 -8.10659
ltoes -15.7213
243
root 15.5471 20.2854 11.9258 7.5673 -3.35442 2.87149
lowerback 8.90912 -0.0520487 -5.2948
upperback 1.16969 -0.594786 -0.308394
thorax -3.73075 -0.222868 2.72932
lowerneck -10.4764 16.2007 13.8285
upperneck 32.9896 26.5947 -14.8083
head 18.3428 11.2143 -3.21595
rclavicle -2.18663e-015 5.56597e-015
rhumerus -43.3632 -3.46332 -82.9939
rradius 55.0016
rwrist -18.1238
rhand -19.4739 19.0518
rfingers 7.12502
rthumb 6.84767 -10.8175
lclavicle -2.18663e-015 5.56597e-015
lhumerus -38.205 6.47266 76.8476
lradius 60.0413
lwrist -0.855771
lhand -10.3381 26.4391
lfingers 7.12502
lthumb 15.6581 55.8254
rfemur -52.4813 -6.1716 21.9441
rtibia 53.9739
rfoot -14.9186 -3.48891
rtoes -15.1623
lfemur 4.53167 -1.24405 -26.9715
ltibia -9.54166e-015
lfoot 1.83298 -8.18674
ltoes -14.4427
